<svg width="106" height="31" viewBox="0 0 106 31" fill="none" xmlns="http://www.w3.org/2000/svg">
<g clip-path="url(#clip0)">
<path d="M15.5833 1.24026C17.9142 2.90742 20.328 4.4554 22.8156 5.87824C24.0375 6.60964 24.5968 7.57768 24.0676 8.65758C23.875 9.02491 23.5922 9.33728 23.2458 9.56539C22.2305 10.2839 21.142 10.9508 20.0793 11.6305C19.6862 11.9057 19.2169 12.0511 18.7371 12.0465C18.2573 12.0419 17.7909 11.8874 17.4032 11.6047C16.4308 10.9809 15.4499 10.3699 14.4948 9.71597C14.0796 9.38021 13.5652 9.191 13.0315 9.17778C12.4977 9.16455 11.9746 9.32804 11.5433 9.64283C10.5667 10.2753 9.62015 10.9551 8.622 11.5445C8.19267 11.7689 7.83346 12.1073 7.58376 12.5224C7.33407 12.9376 7.20355 13.4135 7.20651 13.8979V18.5187C7.19897 18.981 7.31453 19.4371 7.54134 19.84C7.76815 20.243 8.09806 20.5784 8.49723 20.8118C9.49538 21.4357 10.472 22.1069 11.4745 22.7264C11.9576 22.9825 12.3551 23.3744 12.6181 23.8538C12.8811 24.3331 12.998 24.879 12.9545 25.424V27.928C12.9672 28.6018 12.7658 29.2623 12.3792 29.8143C11.9926 30.3663 11.4409 30.7815 10.8033 30.9999H10.1106C10.0698 31.0011 10.0295 30.9907 9.99446 30.9698C9.60294 30.7375 9.20712 30.518 8.82851 30.2728C6.35894 28.6766 3.89797 27.0675 1.4284 25.4713C0.894899 25.1271 0.30547 24.8647 0.0774432 24.2667C0.0258145 24.1376 0 23.6084 0 23.7633V23.5611V8.82107V8.78235V8.63177C0.490473 7.36686 1.59189 6.82906 2.64167 6.14929C5.50706 4.29065 8.38967 2.45783 11.2249 0.556175C12.7308 -0.450585 13.8623 -0.0117411 15.5833 1.24026Z" fill="#134247"/>
<path d="M29.5359 15.094C29.5359 15.4554 29.5359 15.8125 29.5359 16.1739C29.571 16.6378 29.4706 17.1019 29.2468 17.5098C29.023 17.9176 28.6855 18.2517 28.2753 18.4713C25.4501 20.2898 22.6249 22.1212 19.7996 23.9655C19.4256 24.2408 18.9733 24.3894 18.5089 24.3894C18.0445 24.3894 17.5922 24.2408 17.2182 23.9655C14.9379 22.4797 12.6577 20.9897 10.3774 19.4953C9.99712 19.2769 9.68558 18.9565 9.478 18.5702C9.27042 18.184 9.1751 17.7473 9.20283 17.3097C9.23295 16.5137 9.20283 15.7178 9.20283 14.9219C9.1828 14.5092 9.27854 14.0992 9.47925 13.738C9.67996 13.3769 9.97763 13.0791 10.3387 12.8782C10.7689 12.6201 11.1647 12.3576 11.5734 12.0866C11.9475 11.8112 12.3997 11.6627 12.8642 11.6627C13.3286 11.6627 13.7809 11.8112 14.1549 12.0866C15.1875 12.7621 16.2458 13.3773 17.2526 14.1087C18.2594 14.8401 19.1241 14.7498 20.0965 14.1087C21.5163 13.1364 22.992 12.2458 24.3989 11.2777C24.7979 10.9546 25.2923 10.7719 25.8056 10.7579C26.3188 10.7439 26.8224 10.8994 27.2385 11.2003C27.6042 11.4326 27.9957 11.6305 28.37 11.8586C28.7383 12.0477 29.0443 12.339 29.2511 12.6977C29.4579 13.0564 29.5568 13.4672 29.5359 13.8807C29.5273 14.2722 29.5359 14.6852 29.5359 15.094Z" fill="#1BB793"/>
<path d="M46.7713 11.282L45.0504 13.1278C44.977 13.2041 44.878 13.2507 44.7725 13.2586C44.6669 13.2665 44.5621 13.2353 44.4781 13.1708C43.8355 12.7212 43.0633 12.4945 42.2796 12.5254C40.0639 12.5254 38.571 13.9925 38.571 16.6471C38.571 19.3017 40.1198 20.7645 42.2495 20.7645C43.0459 20.7965 43.8302 20.5618 44.4781 20.0976C44.5687 20.0237 44.6841 19.987 44.8007 19.995C44.9174 20.003 45.0266 20.0551 45.1063 20.1407L46.7842 21.9821C46.8236 22.0263 46.8535 22.0782 46.8719 22.1345C46.8903 22.1908 46.8969 22.2503 46.8912 22.3093C46.8856 22.3683 46.8678 22.4254 46.839 22.4772C46.8102 22.529 46.7711 22.5743 46.724 22.6102C45.3397 23.5791 43.6804 24.0768 41.9914 24.03C37.2587 24.03 34.4966 20.8204 34.4966 16.6471C34.4966 12.5814 37.1254 9.26421 42.0172 9.26421C43.6919 9.20553 45.3404 9.69165 46.7154 10.6496C46.7628 10.6859 46.8022 10.7316 46.831 10.7839C46.8598 10.8363 46.8774 10.894 46.8827 10.9535C46.8879 11.013 46.8807 11.0729 46.8616 11.1295C46.8424 11.186 46.8117 11.238 46.7713 11.282Z" fill="#134247"/>
<path d="M63.4431 17.8346H53.8832C53.8164 17.8325 53.75 17.8459 53.6893 17.8739C53.6286 17.9019 53.5753 17.9436 53.5335 17.9958C53.4917 18.048 53.4627 18.1092 53.4487 18.1746C53.4348 18.24 53.4362 18.3077 53.4529 18.3724C53.9391 20.1665 55.2255 21.0442 57.0454 21.0442C58.3742 21.006 59.6689 20.6155 60.7971 19.9126C60.8838 19.8605 60.9861 19.8405 61.086 19.8562C61.1859 19.872 61.2771 19.9224 61.3435 19.9987L62.6343 21.5088C62.7035 21.5927 62.7385 21.6996 62.7321 21.8082C62.7257 21.9167 62.6785 22.0188 62.5998 22.094C61.0168 23.4082 59.0072 24.0969 56.9508 24.03C51.9471 24.03 49.3442 20.7129 49.3442 16.5912C49.3442 12.5814 51.8912 9.27713 56.8389 9.27713C61.4855 9.27713 63.9465 12.2071 63.9465 16.2169C63.9472 16.6384 63.9199 17.0596 63.8647 17.4775C63.8476 17.577 63.7959 17.6674 63.7188 17.7327C63.6417 17.798 63.5441 17.834 63.4431 17.8346ZM53.4745 14.8616C53.4577 14.9263 53.4563 14.9941 53.4703 15.0594C53.4842 15.1248 53.5133 15.186 53.555 15.2382C53.5968 15.2904 53.6501 15.3321 53.7108 15.3601C53.7715 15.3881 53.8379 15.4016 53.9047 15.3994H60.1776V15.0725C60.1776 13.1665 58.7922 12.2802 56.9981 12.2802C55.0792 12.2759 53.9219 13.2267 53.4745 14.8616Z" fill="#134247"/>
<path d="M75.834 9.29003V12.1683C75.8344 12.2294 75.8218 12.29 75.7971 12.3458C75.7723 12.4017 75.7359 12.4517 75.6903 12.4924C75.6447 12.5331 75.591 12.5636 75.5326 12.5819C75.4743 12.6002 75.4128 12.6059 75.3521 12.5986C75.1924 12.5769 75.0314 12.5654 74.8702 12.5641C73.6311 12.5641 72.917 12.9557 71.8112 14.3238C71.7496 14.4007 71.7162 14.4964 71.7166 14.5949V23.1351C71.7166 23.2492 71.6713 23.3587 71.5906 23.4394C71.5099 23.52 71.4005 23.5654 71.2864 23.5654H68.0165C67.9024 23.5654 67.793 23.52 67.7123 23.4394C67.6316 23.3587 67.5863 23.2492 67.5863 23.1351V10.1591C67.5863 10.045 67.6316 9.93557 67.7123 9.85489C67.793 9.7742 67.9024 9.72887 68.0165 9.72887H70.8346C70.9397 9.72798 71.0414 9.76555 71.1206 9.8345C71.1999 9.90346 71.2512 9.99902 71.2648 10.1032L71.3337 10.6711C71.3452 10.7502 71.3785 10.8246 71.43 10.8859C71.4814 10.9471 71.5489 10.9928 71.6248 11.0179C71.7008 11.0429 71.7822 11.0462 71.86 11.0275C71.9378 11.0089 72.0088 10.9688 72.0651 10.912C73.2611 9.64713 74.1173 9.25991 75.3994 9.25991C75.5449 9.25803 75.6902 9.2681 75.834 9.29003Z" fill="#134247"/>
<path d="M85.424 12.775C85.367 12.775 85.3122 12.7976 85.2719 12.838C85.2316 12.8783 85.2089 12.933 85.2089 12.9901V17.1161C85.2089 19.3275 85.5144 20.9065 87.5881 20.9065C87.8377 20.9065 88.0184 20.9065 88.2464 20.9065C88.2753 20.9047 88.3043 20.9089 88.3317 20.9186C88.359 20.9284 88.3841 20.9436 88.4054 20.9633C88.4267 20.983 88.4438 21.0068 88.4556 21.0332C88.4675 21.0597 88.4739 21.0883 88.4744 21.1173V23.7633C88.4725 23.8171 88.4508 23.8684 88.4135 23.9072C88.3762 23.9461 88.3259 23.9699 88.2722 23.9741C87.7172 24.0214 87.33 24.0429 87.0073 24.0429C81.8444 24.0429 81.0915 20.8334 81.0915 17.129V12.9901C81.0915 12.933 81.0688 12.8783 81.0285 12.838C80.9882 12.7976 80.9334 12.775 80.8764 12.775H79.2028C79.1457 12.775 79.091 12.7523 79.0506 12.712C79.0103 12.6716 78.9876 12.6169 78.9876 12.5599V10.1161C78.9876 10.0145 79.028 9.91714 79.0998 9.84533C79.1716 9.77352 79.269 9.73318 79.3706 9.73318C79.827 9.73318 80.2647 9.55187 80.5875 9.22912C80.9102 8.90638 81.0915 8.46865 81.0915 8.01222V5.9944C81.0909 5.96636 81.096 5.93848 81.1063 5.9124C81.1166 5.88633 81.1321 5.86258 81.1517 5.84254C81.1713 5.82251 81.1948 5.80659 81.2206 5.79573C81.2465 5.78487 81.2743 5.77928 81.3023 5.77928H84.9938C85.0508 5.77928 85.1055 5.80195 85.1459 5.84229C85.1862 5.88263 85.2089 5.93735 85.2089 5.9944V9.51806C85.2089 9.57511 85.2316 9.62983 85.2719 9.67017C85.3122 9.71052 85.367 9.73318 85.424 9.73318H88.2593C88.3163 9.73318 88.3711 9.75584 88.4114 9.79619C88.4517 9.83653 88.4744 9.89125 88.4744 9.9483V12.5599C88.4744 12.6169 88.4517 12.6716 88.4114 12.712C88.3711 12.7523 88.3163 12.775 88.2593 12.775H85.424Z" fill="#134247"/>
<path d="M105.727 15.0983V23.1351C105.727 23.2492 105.682 23.3587 105.601 23.4394C105.52 23.5201 105.411 23.5654 105.297 23.5654H102.053C101.939 23.5654 101.829 23.5201 101.749 23.4394C101.668 23.3587 101.623 23.2492 101.623 23.1351V15.1241C101.623 13.6053 100.517 12.5814 98.8561 12.5814C97.8966 12.5814 97.0104 12.8911 95.8444 14.0571C95.8038 14.0969 95.7714 14.1445 95.7493 14.1969C95.7271 14.2493 95.7156 14.3056 95.7153 14.3626V23.1351C95.7153 23.2492 95.67 23.3587 95.5893 23.4394C95.5086 23.5201 95.3992 23.5654 95.2851 23.5654H92.0153C91.9012 23.5654 91.7918 23.5201 91.7111 23.4394C91.6304 23.3587 91.5851 23.2492 91.5851 23.1351V10.1591C91.5851 10.045 91.6304 9.93558 91.7111 9.85489C91.7918 9.77421 91.9012 9.72888 92.0153 9.72888H94.8334C94.9391 9.72812 95.0413 9.76629 95.1207 9.83612C95.2 9.90595 95.2509 10.0025 95.2636 10.1075L95.3195 10.6152C95.3301 10.6911 95.3609 10.7628 95.4085 10.8229C95.4562 10.8829 95.519 10.9292 95.5905 10.9568C95.662 10.9845 95.7396 10.9925 95.8153 10.9801C95.8909 10.9677 95.9619 10.9353 96.0208 10.8862C97.4965 9.62562 98.6883 9.25992 100.031 9.25992C103.404 9.26422 105.727 11.5875 105.727 15.0983Z" fill="#134247"/>
</g>
<defs>
<clipPath id="clip0">
<rect width="105.735" height="31" fill="white"/>
</clipPath>
</defs>
</svg>
